# Blender v2.79 (sub 0) OBJ File: 's端p端rge.blend'
# www.blender.org
mtllib s端p端rge.mtl
o Cube
v -0.351289 0.220411 -0.239931
v -0.000910 -0.087315 -0.239931
v -0.000910 0.220411 -0.239931
v -0.351289 0.220411 -0.015694
v -0.000910 -0.087315 -0.015694
v -0.000910 0.220411 -0.015694
v 0.383140 0.258516 -0.250705
v 0.383140 0.258516 -0.004919
v -0.384960 0.258516 -0.250705
v -0.384960 0.258516 -0.004919
v -0.384960 0.220411 -0.250705
v -0.384960 0.220411 -0.004919
v 0.349469 0.220411 -0.239931
v 0.349469 0.220411 -0.015694
v -0.454886 -0.087315 -0.015694
v -0.454886 -0.087315 -0.239931
v 0.453065 -0.087315 -0.015694
v 0.453065 -0.087315 -0.239931
v 0.383140 0.220411 -0.250705
v 0.383140 0.220411 -0.004919
v -0.000910 0.214586 -0.179155
v 0.017876 3.742297 -0.065888
v 0.008724 0.214566 -0.178207
v 0.020591 3.742291 -0.065620
v 0.017987 0.214504 -0.175397
v 0.023202 3.742274 -0.064828
v 0.026524 0.214404 -0.170835
v 0.025609 3.742246 -0.063543
v 0.034007 0.214270 -0.164695
v 0.027718 3.742208 -0.061812
v 0.040148 0.214106 -0.157214
v 0.029448 3.742162 -0.059704
v 0.044712 0.213919 -0.148679
v 0.030735 3.742109 -0.057298
v 0.047522 0.213716 -0.139418
v 0.031527 3.742052 -0.054688
v 0.048471 0.213505 -0.129786
v 0.031794 3.741992 -0.051973
v 0.047522 0.213295 -0.120155
v 0.031527 3.741933 -0.049259
v 0.044712 0.213092 -0.110894
v 0.030735 3.741876 -0.046648
v 0.040148 0.212905 -0.102358
v 0.029448 3.741823 -0.044243
v 0.034007 0.212741 -0.094877
v 0.027718 3.741777 -0.042134
v 0.026524 0.212607 -0.088738
v 0.025609 3.741739 -0.040404
v 0.017987 0.212507 -0.084175
v 0.023202 3.741711 -0.039118
v 0.008724 0.212445 -0.081366
v 0.020591 3.741693 -0.038326
v -0.000910 0.212425 -0.080417
v 0.017876 3.741688 -0.038058
v -0.010544 0.212445 -0.081366
v 0.015161 3.741693 -0.038326
v -0.019807 0.212507 -0.084175
v 0.012550 3.741711 -0.039118
v -0.028345 0.212607 -0.088738
v 0.010144 3.741739 -0.040404
v -0.035828 0.212741 -0.094877
v 0.008035 3.741777 -0.042134
v -0.041969 0.212905 -0.102358
v 0.006304 3.741823 -0.044243
v -0.046532 0.213092 -0.110894
v 0.005018 3.741876 -0.046648
v -0.049342 0.213295 -0.120155
v 0.004226 3.741933 -0.049259
v -0.050291 0.213505 -0.129786
v 0.003958 3.741992 -0.051973
v -0.049342 0.213716 -0.139418
v 0.004226 3.742052 -0.054688
v -0.046532 0.213919 -0.148679
v 0.005018 3.742109 -0.057298
v -0.041969 0.214106 -0.157214
v 0.006304 3.742162 -0.059704
v -0.035828 0.214270 -0.164695
v 0.008035 3.742208 -0.061812
v -0.028345 0.214404 -0.170835
v 0.010144 3.742246 -0.063543
v -0.019807 0.214504 -0.175397
v 0.012550 3.742274 -0.064829
v -0.010544 0.214566 -0.178207
v 0.015161 3.742291 -0.065620
v 0.017876 3.679823 -0.103284
v 0.027510 3.679803 -0.102335
v 0.036773 3.679741 -0.099526
v 0.045311 3.679641 -0.094964
v 0.052794 3.679507 -0.088824
v 0.058935 3.679343 -0.081343
v 0.063498 3.679156 -0.072807
v 0.066308 3.678953 -0.063546
v 0.067257 3.678742 -0.053915
v 0.066308 3.678532 -0.044283
v 0.063498 3.678329 -0.035022
v 0.058935 3.678142 -0.026487
v 0.052794 3.677978 -0.019006
v 0.045311 3.677844 -0.012866
v 0.036773 3.677744 -0.008304
v 0.027510 3.677682 -0.005495
v 0.017876 3.677662 -0.004546
v 0.008242 3.677682 -0.005495
v -0.001021 3.677744 -0.008304
v -0.009558 3.677844 -0.012866
v -0.017041 3.677978 -0.019006
v -0.023182 3.678142 -0.026487
v -0.027746 3.678329 -0.035022
v -0.030556 3.678532 -0.044283
v -0.031505 3.678742 -0.053915
v -0.030556 3.678953 -0.063546
v -0.027746 3.679156 -0.072808
v -0.023182 3.679343 -0.081343
v -0.017041 3.679507 -0.088824
v -0.009558 3.679641 -0.094964
v -0.001021 3.679741 -0.099526
v 0.008243 3.679803 -0.102335
v 0.017876 3.723957 -0.092828
v 0.025659 3.723940 -0.092062
v 0.033143 3.723891 -0.089792
v 0.040040 3.723810 -0.086106
v 0.046085 3.723701 -0.081146
v 0.051046 3.723569 -0.075102
v 0.054733 3.723418 -0.068207
v 0.057003 3.723254 -0.060725
v 0.057770 3.723083 -0.052944
v 0.057003 3.722913 -0.045163
v 0.054733 3.722749 -0.037681
v 0.051046 3.722598 -0.030786
v 0.046085 3.722466 -0.024742
v 0.040040 3.722358 -0.019782
v 0.033143 3.722277 -0.016096
v 0.025659 3.722227 -0.013826
v 0.017876 3.722211 -0.013060
v 0.010093 3.722227 -0.013826
v 0.002610 3.722277 -0.016096
v -0.004288 3.722358 -0.019782
v -0.010333 3.722466 -0.024742
v -0.015294 3.722598 -0.030786
v -0.018981 3.722749 -0.037681
v -0.021251 3.722913 -0.045163
v -0.022017 3.723083 -0.052944
v -0.021251 3.723254 -0.060725
v -0.018981 3.723418 -0.068207
v -0.015294 3.723569 -0.075102
v -0.010333 3.723701 -0.081146
v -0.004287 3.723810 -0.086106
v 0.002610 3.723891 -0.089792
v 0.010093 3.723940 -0.092062
v 0.027212 3.701940 -0.100354
v 0.036190 3.701881 -0.097631
v 0.044463 3.701785 -0.093210
v 0.051715 3.701654 -0.087260
v 0.057666 3.701495 -0.080010
v 0.062089 3.701314 -0.071738
v 0.064812 3.701117 -0.062763
v 0.065731 3.700913 -0.053429
v 0.064812 3.700709 -0.044096
v 0.062089 3.700512 -0.035120
v 0.057666 3.700331 -0.026849
v 0.051715 3.700172 -0.019599
v 0.044463 3.700042 -0.013649
v 0.036190 3.699945 -0.009227
v 0.027212 3.699886 -0.006505
v 0.017876 3.699866 -0.005586
v 0.008540 3.699886 -0.006505
v -0.000437 3.699945 -0.009228
v -0.008711 3.700042 -0.013649
v -0.015963 3.700172 -0.019599
v -0.021914 3.700331 -0.026849
v -0.026336 3.700512 -0.035120
v -0.029060 3.700709 -0.044096
v -0.029979 3.700913 -0.053429
v -0.029060 3.701117 -0.062763
v -0.026336 3.701314 -0.071738
v -0.021914 3.701495 -0.080010
v -0.015963 3.701654 -0.087260
v -0.008711 3.701785 -0.093210
v -0.000437 3.701881 -0.097631
v 0.008540 3.701940 -0.100354
v 0.017876 3.701961 -0.101273
vt 0.175002 0.897223
vt 0.182629 0.593344
vt 0.443296 0.595576
vt 0.435670 0.899455
vt 0.192999 0.906461
vt 0.215669 0.601039
vt 0.435834 0.617381
vt 0.413164 0.922803
vt 0.477914 0.609451
vt 0.778580 0.609451
vt 0.867478 0.873516
vt 0.477914 0.873516
vt 0.088349 0.873516
vt 0.177247 0.609451
vt 0.477776 0.609612
vt 0.770408 0.609612
vt 0.856930 0.895609
vt 0.477776 0.895609
vt 0.098622 0.895609
vt 0.185145 0.609612
vt 0.148056 0.753327
vt 0.801147 0.753327
vt 0.801147 0.904449
vt 0.148056 0.904449
vt 0.999952 0.225969
vt 0.000048 0.225969
vt 0.000048 0.000048
vt 0.999952 0.000048
vt 0.000048 0.000048
vt 0.999952 0.000048
vt 0.999952 0.225969
vt 0.000048 0.225969
vt 0.999944 0.310089
vt 0.000056 0.310089
vt 0.000056 0.000056
vt 0.999944 0.000056
vt 1.039242 0.669825
vt -0.024902 0.669825
vt -0.024902 0.298925
vt 1.039242 0.298925
vt 0.574312 0.158122
vt 0.310434 0.158123
vt 0.297755 0.139146
vt 0.586991 0.139146
vt 0.574312 0.553057
vt 0.586991 0.572034
vt 0.310434 0.553058
vt 0.297755 0.572034
vt 0.000056 0.000056
vt 0.999944 0.000056
vt 0.999944 0.310089
vt 0.000056 0.310089
vt 0.973852 0.588593
vt 0.978787 0.588593
vt 0.978785 0.605130
vt 0.973847 0.635999
vt 0.978781 0.621038
vt 0.973834 0.681585
vt 0.978773 0.635689
vt 0.973812 0.723594
vt 0.978763 0.648539
vt 0.973783 0.760414
vt 0.978751 0.659079
vt 0.973747 0.790638
vt 0.978736 0.666918
vt 0.973706 0.813093
vt 0.978721 0.671743
vt 0.973662 0.826920
vt 0.978705 0.673370
vt 0.973616 0.831588
vt 0.978689 0.671743
vt 0.973571 0.826920
vt 0.978674 0.666918
vt 0.973526 0.813093
vt 0.978660 0.659079
vt 0.973486 0.790638
vt 0.978647 0.648539
vt 0.973450 0.760414
vt 0.978637 0.635689
vt 0.973421 0.723594
vt 0.978629 0.621038
vt 0.973399 0.681585
vt 0.978625 0.605130
vt 0.973386 0.635999
vt 0.978623 0.588593
vt 0.973382 0.588593
vt 0.978625 0.572055
vt 0.973386 0.541187
vt 0.978629 0.556151
vt 0.973399 0.495601
vt 0.978637 0.541497
vt 0.973421 0.453591
vt 0.978647 0.528647
vt 0.973450 0.416771
vt 0.978660 0.518106
vt 0.973486 0.386552
vt 0.978674 0.510272
vt 0.973526 0.364096
vt 0.978689 0.505447
vt 0.973571 0.350265
vt 0.978705 0.503820
vt 0.973616 0.345597
vt 0.978721 0.505447
vt 0.973662 0.350265
vt 0.978736 0.510272
vt 0.973706 0.364096
vt 0.978751 0.518106
vt 0.973747 0.386552
vt 0.978763 0.528647
vt 0.973783 0.416771
vt 0.978773 0.541497
vt 0.973812 0.453591
vt 0.978781 0.556151
vt 0.973834 0.495601
vt 0.978785 0.572055
vt 0.973847 0.541191
vt 0.967927 0.531725
vt 0.967932 0.588593
vt 0.967911 0.477044
vt 0.967885 0.426649
vt 0.967850 0.382480
vt 0.967807 0.346226
vt 0.967758 0.319289
vt 0.967705 0.302701
vt 0.967650 0.297103
vt 0.967595 0.302701
vt 0.967542 0.319289
vt 0.967493 0.346226
vt 0.967451 0.382480
vt 0.967415 0.426649
vt 0.967390 0.477044
vt 0.967374 0.531725
vt 0.967368 0.588593
vt 0.967374 0.645459
vt 0.967390 0.700141
vt 0.967415 0.750540
vt 0.967451 0.794710
vt 0.967493 0.830959
vt 0.967542 0.857897
vt 0.967595 0.874483
vt 0.967650 0.880083
vt 0.967705 0.874483
vt 0.967758 0.857897
vt 0.967807 0.830959
vt 0.967850 0.794710
vt 0.967885 0.750540
vt 0.967911 0.700141
vt 0.967927 0.645463
vt 0.961974 0.588593
vt 0.961969 0.647273
vt 0.961952 0.703701
vt 0.961926 0.755697
vt 0.961889 0.801278
vt 0.961845 0.838686
vt 0.961795 0.866484
vt 0.961740 0.883601
vt 0.961684 0.889378
vt 0.961627 0.883601
vt 0.961572 0.866484
vt 0.961522 0.838686
vt 0.961478 0.801278
vt 0.961442 0.755697
vt 0.961415 0.703701
vt 0.961398 0.647273
vt 0.961393 0.588593
vt 0.961398 0.529913
vt 0.961415 0.473485
vt 0.961442 0.421489
vt 0.961478 0.375908
vt 0.961522 0.338499
vt 0.961572 0.310702
vt 0.961627 0.293589
vt 0.961684 0.287808
vt 0.961740 0.293589
vt 0.961795 0.310706
vt 0.961845 0.338499
vt 0.961889 0.375908
vt 0.961926 0.421489
vt 0.961952 0.473489
vt 0.961969 0.529913
vt 0.029427 0.474163
vt 0.029421 0.532843
vt 0.029405 0.589267
vt 0.029378 0.641267
vt 0.029341 0.686849
vt 0.029297 0.724257
vt 0.029247 0.752051
vt 0.029192 0.769167
vt 0.029136 0.774949
vt 0.029079 0.769167
vt 0.029024 0.752051
vt 0.028974 0.724257
vt 0.028930 0.686849
vt 0.028894 0.641267
vt 0.028867 0.589267
vt 0.028851 0.532843
vt 0.028845 0.474163
vt 0.028851 0.415480
vt 0.028867 0.359055
vt 0.028894 0.307056
vt 0.028930 0.261478
vt 0.028974 0.224071
vt 0.029024 0.196272
vt 0.029079 0.179160
vt 0.029136 0.173378
vt 0.029192 0.179160
vt 0.029247 0.196276
vt 0.029297 0.224071
vt 0.029341 0.261478
vt 0.029378 0.307060
vt 0.029405 0.359059
vt 0.029421 0.415484
vn -0.9477 0.3191 0.0000
vn 0.9477 0.3191 0.0000
vn 0.0000 0.0000 1.0000
vn 0.0000 0.0000 -1.0000
vn 0.0000 -1.0000 0.0000
vn -1.0000 0.0000 0.0000
vn 0.0000 1.0000 0.0000
vn 1.0000 0.0000 0.0000
vn 0.0571 0.8253 -0.5618
vn 0.1692 0.8246 -0.5398
vn 0.2751 0.8232 -0.4967
vn 0.3707 0.8212 -0.4339
vn 0.4526 0.8186 -0.3535
vn 0.5175 0.8156 -0.2589
vn 0.5630 0.8122 -0.1530
vn 0.5871 0.8085 -0.0401
vn 0.5887 0.8048 0.0756
vn 0.5676 0.8011 0.1897
vn 0.5244 0.7977 0.2979
vn 0.4608 0.7945 0.3955
vn 0.3788 0.7918 0.4791
vn 0.2820 0.7897 0.5449
vn 0.1738 0.7882 0.5904
vn 0.0588 0.7875 0.6135
vn -0.0588 0.7875 0.6135
vn -0.1738 0.7882 0.5904
vn -0.2820 0.7897 0.5449
vn -0.3788 0.7918 0.4791
vn -0.4608 0.7945 0.3956
vn -0.5244 0.7976 0.2979
vn -0.5676 0.8011 0.1897
vn -0.5887 0.8048 0.0756
vn -0.5871 0.8085 -0.0402
vn -0.5630 0.8122 -0.1530
vn -0.5175 0.8156 -0.2589
vn -0.4526 0.8186 -0.3536
vn -0.3707 0.8212 -0.4339
vn -0.2751 0.8232 -0.4967
vn -0.0000 0.9998 0.0219
vn -0.1692 0.8246 -0.5399
vn -0.0571 0.8253 -0.5618
vn -0.0923 0.3569 -0.9296
vn -0.2733 0.3561 -0.8936
vn -0.4439 0.3546 -0.8229
vn -0.5974 0.3523 -0.7204
vn -0.7280 0.3495 -0.5899
vn -0.8305 0.3461 -0.4365
vn -0.9011 0.3424 -0.2659
vn -0.9372 0.3384 -0.0849
vn -0.9372 0.3344 0.0996
vn -0.9012 0.3304 0.2806
vn -0.8305 0.3267 0.4512
vn -0.7280 0.3233 0.6046
vn -0.5974 0.3204 0.7351
vn -0.4439 0.3182 0.8377
vn -0.2734 0.3167 0.9083
vn -0.0923 0.3159 0.9443
vn 0.0923 0.3159 0.9443
vn 0.2734 0.3167 0.9083
vn 0.4439 0.3182 0.8377
vn 0.5974 0.3204 0.7351
vn 0.7280 0.3233 0.6046
vn 0.8305 0.3267 0.4512
vn 0.9011 0.3304 0.2807
vn 0.9372 0.3344 0.0996
vn 0.9372 0.3384 -0.0849
vn 0.9011 0.3424 -0.2659
vn 0.8305 0.3461 -0.4365
vn 0.7280 0.3495 -0.5899
vn 0.5974 0.3523 -0.7204
vn 0.4439 0.3546 -0.8229
vn 0.2733 0.3561 -0.8936
vn 0.0923 0.3569 -0.9296
vn 0.0978 0.0900 -0.9911
vn 0.2896 0.0892 -0.9530
vn 0.4703 0.0875 -0.8782
vn 0.6329 0.0852 -0.7695
vn 0.7712 0.0821 -0.6313
vn 0.8799 0.0786 -0.4687
vn 0.9547 0.0746 -0.2880
vn 0.9929 0.0704 -0.0963
vn 0.9929 0.0661 0.0993
vn 0.9547 0.0619 0.2910
vn 0.8799 0.0580 0.4717
vn 0.7712 0.0544 0.6343
vn 0.6329 0.0514 0.7725
vn 0.4703 0.0490 0.8811
vn 0.2896 0.0474 0.9560
vn 0.0978 0.0465 0.9941
vn -0.0978 0.0465 0.9941
vn -0.2896 0.0474 0.9560
vn -0.4703 0.0490 0.8811
vn -0.6329 0.0514 0.7725
vn -0.7712 0.0544 0.6342
vn -0.8799 0.0580 0.4717
vn -0.9547 0.0619 0.2910
vn -0.9929 0.0661 0.0993
vn -0.9929 0.0704 -0.0963
vn -0.9547 0.0746 -0.2880
vn -0.8799 0.0786 -0.4687
vn -0.7712 0.0821 -0.6313
vn -0.6329 0.0852 -0.7695
vn -0.4703 0.0875 -0.8782
vn -0.2896 0.0892 -0.9530
vn -0.0978 0.0900 -0.9911
vn 0.0980 0.0213 -0.9950
vn 0.2903 0.0194 -0.9567
vn 0.4714 0.0168 -0.8818
vn 0.6344 0.0135 -0.7729
vn 0.7730 0.0097 -0.6343
vn 0.8819 0.0055 -0.4714
vn 0.9569 0.0012 -0.2903
vn 0.9952 -0.0032 -0.0981
vn 0.9952 -0.0075 0.0979
vn 0.9569 -0.0115 0.2901
vn 0.8819 -0.0151 0.4712
vn 0.7730 -0.0181 0.6341
vn 0.6344 -0.0204 0.7727
vn 0.4714 -0.0219 0.8817
vn 0.2903 -0.0225 0.9567
vn 0.0980 -0.0223 0.9949
vn -0.0980 -0.0213 0.9950
vn -0.2903 -0.0194 0.9567
vn -0.4714 -0.0168 0.8818
vn -0.6344 -0.0135 0.7729
vn -0.7730 -0.0097 0.6343
vn -0.8819 -0.0055 0.4714
vn -0.9569 -0.0012 0.2903
vn -0.9952 0.0032 0.0981
vn -0.9952 0.0075 -0.0979
vn -0.9569 0.0115 -0.2901
vn -0.8819 0.0151 -0.4712
vn -0.7730 0.0181 -0.6341
vn -0.6344 0.0204 -0.7727
vn -0.4714 0.0219 -0.8817
vn -0.2903 0.0225 -0.9567
vn -0.0980 0.0223 -0.9949
usemtl Material.003
s off
f 15/1/1 4/2/1 1/3/1 16/4/1
f 18/5/2 13/6/2 14/7/2 17/8/2
f 6/9/3 4/10/3 15/11/3 5/12/3 17/13/3 14/14/3
f 3/15/4 13/16/4 18/17/4 2/18/4 16/19/4 1/20/4
f 16/21/5 18/22/5 17/23/5 15/24/5
usemtl Material.002
f 19/25/4 11/26/4 9/27/4 7/28/4
f 12/29/3 20/30/3 8/31/3 10/32/3
f 11/33/6 12/34/6 10/35/6 9/36/6
f 7/37/7 9/38/7 10/39/7 8/40/7
f 4/41/5 14/42/5 20/43/5 12/44/5
f 1/45/5 4/41/5 12/44/5 11/46/5
f 14/42/5 13/47/5 19/48/5 20/43/5
f 13/47/5 1/45/5 11/46/5 19/48/5
f 20/49/8 19/50/8 7/51/8 8/52/8
usemtl Material.001
f 117/53/9 22/54/9 24/55/9 118/56/9
f 118/56/10 24/55/10 26/57/10 119/58/10
f 119/58/11 26/57/11 28/59/11 120/60/11
f 120/60/12 28/59/12 30/61/12 121/62/12
f 121/62/13 30/61/13 32/63/13 122/64/13
f 122/64/14 32/63/14 34/65/14 123/66/14
f 123/66/15 34/65/15 36/67/15 124/68/15
f 124/68/16 36/67/16 38/69/16 125/70/16
f 125/70/17 38/69/17 40/71/17 126/72/17
f 126/72/18 40/71/18 42/73/18 127/74/18
f 127/74/19 42/73/19 44/75/19 128/76/19
f 128/76/20 44/75/20 46/77/20 129/78/20
f 129/78/21 46/77/21 48/79/21 130/80/21
f 130/80/22 48/79/22 50/81/22 131/82/22
f 131/82/23 50/81/23 52/83/23 132/84/23
f 132/84/24 52/83/24 54/85/24 133/86/24
f 133/86/25 54/85/25 56/87/25 134/88/25
f 134/88/26 56/87/26 58/89/26 135/90/26
f 135/90/27 58/89/27 60/91/27 136/92/27
f 136/92/28 60/91/28 62/93/28 137/94/28
f 137/94/29 62/93/29 64/95/29 138/96/29
f 138/96/30 64/95/30 66/97/30 139/98/30
f 139/98/31 66/97/31 68/99/31 140/100/31
f 140/100/32 68/99/32 70/101/32 141/102/32
f 141/102/33 70/101/33 72/103/33 142/104/33
f 142/104/34 72/103/34 74/105/34 143/106/34
f 143/106/35 74/105/35 76/107/35 144/108/35
f 144/108/36 76/107/36 78/109/36 145/110/36
f 145/110/37 78/109/37 80/111/37 146/112/37
f 146/112/38 80/111/38 82/113/38 147/114/38
f 24/55/39 22/54/39 84/115/39 82/113/39 80/111/39 78/109/39 76/107/39 74/105/39 72/103/39 70/101/39 68/99/39 66/97/39 64/95/39 62/93/39 60/91/39 58/89/39 56/87/39 54/85/39 52/83/39 50/81/39 48/79/39 46/77/39 44/75/39 42/73/39 40/71/39 38/69/39 36/67/39 34/65/39 32/63/39 30/61/39 28/59/39 26/57/39
f 147/114/40 82/113/40 84/115/40 148/116/40
f 148/116/41 84/115/41 22/54/41 117/53/41
f 179/117/42 148/116/42 117/53/42 180/118/42
f 178/119/43 147/114/43 148/116/43 179/117/43
f 177/120/44 146/112/44 147/114/44 178/119/44
f 176/121/45 145/110/45 146/112/45 177/120/45
f 175/122/46 144/108/46 145/110/46 176/121/46
f 174/123/47 143/106/47 144/108/47 175/122/47
f 173/124/48 142/104/48 143/106/48 174/123/48
f 172/125/49 141/102/49 142/104/49 173/124/49
f 171/126/50 140/100/50 141/102/50 172/125/50
f 170/127/51 139/98/51 140/100/51 171/126/51
f 169/128/52 138/96/52 139/98/52 170/127/52
f 168/129/53 137/94/53 138/96/53 169/128/53
f 167/130/54 136/92/54 137/94/54 168/129/54
f 166/131/55 135/90/55 136/92/55 167/130/55
f 165/132/56 134/88/56 135/90/56 166/131/56
f 164/133/57 133/86/57 134/88/57 165/132/57
f 163/134/58 132/84/58 133/86/58 164/133/58
f 162/135/59 131/82/59 132/84/59 163/134/59
f 161/136/60 130/80/60 131/82/60 162/135/60
f 160/137/61 129/78/61 130/80/61 161/136/61
f 159/138/62 128/76/62 129/78/62 160/137/62
f 158/139/63 127/74/63 128/76/63 159/138/63
f 157/140/64 126/72/64 127/74/64 158/139/64
f 156/141/65 125/70/65 126/72/65 157/140/65
f 155/142/66 124/68/66 125/70/66 156/141/66
f 154/143/67 123/66/67 124/68/67 155/142/67
f 153/144/68 122/64/68 123/66/68 154/143/68
f 152/145/69 121/62/69 122/64/69 153/144/69
f 151/146/70 120/60/70 121/62/70 152/145/70
f 150/147/71 119/58/71 120/60/71 151/146/71
f 149/148/72 118/56/72 119/58/72 150/147/72
f 180/118/73 117/53/73 118/56/73 149/148/73
f 85/149/74 180/118/74 149/148/74 86/150/74
f 86/150/75 149/148/75 150/147/75 87/151/75
f 87/151/76 150/147/76 151/146/76 88/152/76
f 88/152/77 151/146/77 152/145/77 89/153/77
f 89/153/78 152/145/78 153/144/78 90/154/78
f 90/154/79 153/144/79 154/143/79 91/155/79
f 91/155/80 154/143/80 155/142/80 92/156/80
f 92/156/81 155/142/81 156/141/81 93/157/81
f 93/157/82 156/141/82 157/140/82 94/158/82
f 94/158/83 157/140/83 158/139/83 95/159/83
f 95/159/84 158/139/84 159/138/84 96/160/84
f 96/160/85 159/138/85 160/137/85 97/161/85
f 97/161/86 160/137/86 161/136/86 98/162/86
f 98/162/87 161/136/87 162/135/87 99/163/87
f 99/163/88 162/135/88 163/134/88 100/164/88
f 100/164/89 163/134/89 164/133/89 101/165/89
f 101/165/90 164/133/90 165/132/90 102/166/90
f 102/166/91 165/132/91 166/131/91 103/167/91
f 103/167/92 166/131/92 167/130/92 104/168/92
f 104/168/93 167/130/93 168/129/93 105/169/93
f 105/169/94 168/129/94 169/128/94 106/170/94
f 106/170/95 169/128/95 170/127/95 107/171/95
f 107/171/96 170/127/96 171/126/96 108/172/96
f 108/172/97 171/126/97 172/125/97 109/173/97
f 109/173/98 172/125/98 173/124/98 110/174/98
f 110/174/99 173/124/99 174/123/99 111/175/99
f 111/175/100 174/123/100 175/122/100 112/176/100
f 112/176/101 175/122/101 176/121/101 113/177/101
f 113/177/102 176/121/102 177/120/102 114/178/102
f 114/178/103 177/120/103 178/119/103 115/179/103
f 115/179/104 178/119/104 179/117/104 116/180/104
f 116/180/105 179/117/105 180/118/105 85/149/105
f 21/181/106 85/149/106 86/150/106 23/182/106
f 86/150/107 87/151/107 25/183/107 23/182/107
f 87/151/108 88/152/108 27/184/108 25/183/108
f 88/152/109 89/153/109 29/185/109 27/184/109
f 89/153/110 90/154/110 31/186/110 29/185/110
f 90/154/111 91/155/111 33/187/111 31/186/111
f 91/155/112 92/156/112 35/188/112 33/187/112
f 92/156/113 93/157/113 37/189/113 35/188/113
f 93/157/114 94/158/114 39/190/114 37/189/114
f 94/158/115 95/159/115 41/191/115 39/190/115
f 95/159/116 96/160/116 43/192/116 41/191/116
f 96/160/117 97/161/117 45/193/117 43/192/117
f 97/161/118 98/162/118 47/194/118 45/193/118
f 98/162/119 99/163/119 49/195/119 47/194/119
f 99/163/120 100/164/120 51/196/120 49/195/120
f 100/164/121 101/165/121 53/197/121 51/196/121
f 101/165/122 102/166/122 55/198/122 53/197/122
f 102/166/123 103/167/123 57/199/123 55/198/123
f 103/167/124 104/168/124 59/200/124 57/199/124
f 104/168/125 105/169/125 61/201/125 59/200/125
f 105/169/126 106/170/126 63/202/126 61/201/126
f 106/170/127 107/171/127 65/203/127 63/202/127
f 107/171/128 108/172/128 67/204/128 65/203/128
f 108/172/129 109/173/129 69/205/129 67/204/129
f 109/173/130 110/174/130 71/206/130 69/205/130
f 110/174/131 111/175/131 73/207/131 71/206/131
f 111/175/132 112/176/132 75/208/132 73/207/132
f 112/176/133 113/177/133 77/209/133 75/208/133
f 113/177/134 114/178/134 79/210/134 77/209/134
f 114/178/135 115/179/135 81/211/135 79/210/135
f 115/179/136 116/180/136 83/212/136 81/211/136
f 116/180/137 85/149/137 21/181/137 83/212/137
