# Blender v2.80 (sub 75) OBJ File: ''
# www.blender.org
mtllib ParticlePlane.mtl
o Cylinder_Cylinder.001
v 0.000000 0.000000 -1.000000
v 0.000000 2.000000 -1.000000
v 0.707107 0.000000 -0.707107
v 0.707107 2.000000 -0.707107
v 1.000000 0.000000 0.000000
v 1.000000 2.000000 0.000000
v 0.707107 0.000000 0.707107
v 0.707107 2.000000 0.707107
v -0.000000 0.000000 1.000000
v -0.000000 2.000000 1.000000
v -0.707107 0.000000 0.707107
v -0.707107 2.000000 0.707107
v -1.000000 0.000000 -0.000000
v -1.000000 2.000000 -0.000000
v -0.707107 0.000000 -0.707107
v -0.707107 2.000000 -0.707107
v 0.000000 0.500000 -1.000000
v 0.000000 1.000000 -1.000000
v 0.000000 1.500000 -1.000000
v 0.707107 1.500000 -0.707107
v 0.707107 1.000000 -0.707107
v 0.707107 0.500000 -0.707107
v 1.000000 1.500000 0.000000
v 1.000000 1.000000 0.000000
v 1.000000 0.500000 0.000000
v 0.707107 1.500000 0.707107
v 0.707107 1.000000 0.707107
v 0.707107 0.500000 0.707107
v -0.000000 1.500000 1.000000
v -0.000000 1.000000 1.000000
v -0.000000 0.500000 1.000000
v -0.707107 1.500000 0.707107
v -0.707107 1.000000 0.707107
v -0.707107 0.500000 0.707107
v -1.000000 1.500000 -0.000000
v -1.000000 1.000000 -0.000000
v -1.000000 0.500000 -0.000000
v -0.707107 1.500000 -0.707107
v -0.707107 1.000000 -0.707107
v -0.707107 0.500000 -0.707107
vt 0.250029 0.250484
vt 0.250029 0.000175
vt 0.375015 0.000175
vt 0.375015 0.250484
vt 0.500000 0.000176
vt 0.500000 0.250484
vt 0.624986 0.000176
vt 0.624986 0.250484
vt 0.749972 0.000176
vt 0.749972 0.250485
vt 0.874957 0.000176
vt 0.874957 0.250485
vt 0.999943 0.000177
vt 0.999943 0.250485
vt 0.000057 0.250484
vt 0.000057 0.000175
vt 0.125043 0.000175
vt 0.125043 0.250484
vt 0.125043 1.001411
vt 0.125043 0.751102
vt 0.250029 0.751102
vt 0.250029 1.001411
vt 0.125043 0.500793
vt 0.250029 0.500793
vt 0.000057 1.001411
vt 0.000057 0.751102
vt 0.000057 0.500793
vt 0.874957 1.001411
vt 0.874957 0.751102
vt 0.999943 0.751102
vt 0.999943 1.001411
vt 0.874957 0.500794
vt 0.999943 0.500794
vt 0.749971 1.001410
vt 0.749972 0.751102
vt 0.749972 0.500793
vt 0.624986 1.001410
vt 0.624986 0.751102
vt 0.624986 0.500793
vt 0.500000 1.001410
vt 0.500000 0.751102
vt 0.500000 0.500793
vt 0.375014 1.001410
vt 0.375015 0.751102
vt 0.375015 0.500793
vn 0.0000 0.0000 -1.0000
vn 0.7071 0.0000 -0.7071
vn 1.0000 0.0000 0.0000
vn 0.7071 0.0000 0.7071
vn 0.0000 0.0000 1.0000
vn -0.7071 0.0000 0.7071
vn -1.0000 0.0000 0.0000
vn -0.7071 0.0000 -0.7071
usemtl None
s 1
f 19/1/1 2/2/1 4/3/2 20/4/2
f 20/4/2 4/3/2 6/5/3 23/6/3
f 23/6/3 6/5/3 8/7/4 26/8/4
f 26/8/4 8/7/4 10/9/5 29/10/5
f 29/10/5 10/9/5 12/11/6 32/12/6
f 32/12/6 12/11/6 14/13/7 35/14/7
f 35/15/7 14/16/7 16/17/8 38/18/8
f 38/18/8 16/17/8 2/2/1 19/1/1
f 15/19/8 40/20/8 17/21/1 1/22/1
f 40/20/8 39/23/8 18/24/1 17/21/1
f 39/23/8 38/18/8 19/1/1 18/24/1
f 13/25/7 37/26/7 40/20/8 15/19/8
f 37/26/7 36/27/7 39/23/8 40/20/8
f 36/27/7 35/15/7 38/18/8 39/23/8
f 11/28/6 34/29/6 37/30/7 13/31/7
f 34/29/6 33/32/6 36/33/7 37/30/7
f 33/32/6 32/12/6 35/14/7 36/33/7
f 9/34/5 31/35/5 34/29/6 11/28/6
f 31/35/5 30/36/5 33/32/6 34/29/6
f 30/36/5 29/10/5 32/12/6 33/32/6
f 7/37/4 28/38/4 31/35/5 9/34/5
f 28/38/4 27/39/4 30/36/5 31/35/5
f 27/39/4 26/8/4 29/10/5 30/36/5
f 5/40/3 25/41/3 28/38/4 7/37/4
f 25/41/3 24/42/3 27/39/4 28/38/4
f 24/42/3 23/6/3 26/8/4 27/39/4
f 3/43/2 22/44/2 25/41/3 5/40/3
f 22/44/2 21/45/2 24/42/3 25/41/3
f 21/45/2 20/4/2 23/6/3 24/42/3
f 1/22/1 17/21/1 22/44/2 3/43/2
f 17/21/1 18/24/1 21/45/2 22/44/2
f 18/24/1 19/1/1 20/4/2 21/45/2
